<svg width="120" height="5" viewBox="0 0 120 5" fill="none" xmlns="http://www.w3.org/2000/svg">
<path fill-rule="evenodd" clip-rule="evenodd" d="M4.24093 3.97429C4.72679 4.17429 5.19334 4.27429 5.6406 4.27429C6.0812 4.27429 6.53977 4.17629 7.01631 3.98029C7.49151 3.78429 7.8995 3.54896 8.24027 3.27429C8.50649 3.05563 8.82596 2.83429 9.19867 2.61029C9.57138 2.38629 9.93278 2.27429 10.2829 2.27429C10.6423 2.27296 10.991 2.38496 11.3291 2.61029C11.6672 2.83562 11.9827 3.05696 12.2755 3.27429C12.6243 3.54896 13.0409 3.78429 13.5255 3.98029C14.01 4.17629 14.4765 4.27429 14.9251 4.27429C15.3737 4.27429 15.8403 4.17629 16.3248 3.98029C16.8106 3.78429 17.2273 3.54896 17.5747 3.27429C17.8676 3.05563 18.1917 2.83429 18.5471 2.61029C18.9025 2.38629 19.2592 2.27429 19.6173 2.27429C19.9754 2.27429 20.3261 2.38629 20.6696 2.61029C21.0116 2.83562 21.3291 3.05696 21.622 3.27429C21.9694 3.54096 22.386 3.77429 22.8719 3.97429C23.3577 4.17429 23.8203 4.27429 24.2596 4.27429C24.7082 4.27429 25.1834 4.17429 25.6852 3.97429C26.187 3.77429 26.6243 3.54096 26.997 3.27429C27.2899 3.05696 27.6073 2.83562 27.9494 2.61029C28.2915 2.38629 28.6423 2.27429 29.0017 2.27429H30H30.9983C31.3498 2.27296 31.7032 2.38496 32.0586 2.61029C32.414 2.83562 32.7248 3.05696 32.991 3.27429C33.3384 3.54096 33.7551 3.77429 34.2409 3.97429C34.7268 4.17429 35.1933 4.27429 35.6406 4.27429C36.0812 4.27429 36.5398 4.17629 37.0163 3.98029C37.4915 3.78429 37.8995 3.54896 38.2403 3.27429C38.5065 3.05563 38.826 2.83429 39.1987 2.61029C39.5714 2.38629 39.9328 2.27429 40.2829 2.27429C40.6423 2.27296 40.991 2.38496 41.3291 2.61029C41.6672 2.83562 41.9827 3.05696 42.2755 3.27429C42.6243 3.54896 43.0409 3.78429 43.5255 3.98029C44.01 4.17629 44.4765 4.27429 44.9251 4.27429C45.3737 4.27429 45.8403 4.17629 46.3248 3.98029C46.8106 3.78429 47.2273 3.54896 47.5747 3.27429C47.8676 3.05563 48.1917 2.83429 48.5471 2.61029C48.9025 2.38629 49.2592 2.27429 49.6173 2.27429C49.9754 2.27429 50.3261 2.38629 50.6696 2.61029C51.0117 2.83562 51.3291 3.05696 51.622 3.27429C51.9694 3.54096 52.386 3.77429 52.8719 3.97429C53.3577 4.17429 53.8203 4.27429 54.2596 4.27429C54.7082 4.27429 55.1834 4.17429 55.6852 3.97429C56.187 3.77429 56.6243 3.54096 56.997 3.27429C57.2899 3.05696 57.6073 2.83562 57.9494 2.61029C58.2915 2.38629 58.6423 2.27429 59.0017 2.27429H60H60.9983C61.3498 2.27296 61.7032 2.38496 62.0586 2.61029C62.414 2.83562 62.7248 3.05696 62.991 3.27429C63.3384 3.54096 63.7551 3.77429 64.2409 3.97429C64.7268 4.17429 65.1933 4.27429 65.6406 4.27429C66.0812 4.27429 66.5398 4.17629 67.0163 3.98029C67.4915 3.78429 67.8995 3.54896 68.2403 3.27429C68.5065 3.05563 68.826 2.83429 69.1987 2.61029C69.5714 2.38629 69.9328 2.27429 70.2829 2.27429C70.6423 2.27296 70.991 2.38496 71.3291 2.61029C71.6672 2.83562 71.9827 3.05696 72.2755 3.27429C72.6243 3.54896 73.0409 3.78429 73.5255 3.98029C74.01 4.17629 74.4765 4.27429 74.9251 4.27429C75.3737 4.27429 75.8403 4.17629 76.3248 3.98029C76.8106 3.78429 77.2273 3.54896 77.5747 3.27429C77.8676 3.05563 78.1917 2.83429 78.5471 2.61029C78.9025 2.38629 79.2592 2.27429 79.6173 2.27429C79.9754 2.27429 80.3261 2.38629 80.6695 2.61029C81.0117 2.83562 81.3291 3.05696 81.622 3.27429C81.9694 3.54096 82.386 3.77429 82.8719 3.97429C83.3577 4.17429 83.8203 4.27429 84.2596 4.27429C84.7082 4.27429 85.1834 4.17429 85.6852 3.97429C86.187 3.77429 86.6243 3.54096 86.997 3.27429C87.2898 3.05696 87.6073 2.83562 87.9494 2.61029C88.2915 2.38629 88.6423 2.27429 89.0017 2.27429H90H90.9983C91.3497 2.27296 91.7032 2.38496 92.0586 2.61029C92.414 2.83562 92.7248 3.05696 92.991 3.27429C93.3384 3.54096 93.7551 3.77429 94.2409 3.97429C94.7268 4.17429 95.1933 4.27429 95.6406 4.27429C96.0812 4.27429 96.5398 4.17629 97.0163 3.98029C97.4915 3.78429 97.8995 3.54896 98.2403 3.27429C98.5065 3.05563 98.826 2.83429 99.1987 2.61029C99.5714 2.38629 99.9328 2.27429 100.283 2.27429C100.642 2.27296 100.991 2.38496 101.329 2.61029C101.667 2.83562 101.983 3.05696 102.276 3.27429C102.624 3.54896 103.041 3.78429 103.525 3.98029C104.01 4.17629 104.477 4.27429 104.925 4.27429C105.374 4.27429 105.84 4.17629 106.325 3.98029C106.811 3.78429 107.227 3.54896 107.575 3.27429C107.868 3.05563 108.192 2.83429 108.547 2.61029C108.902 2.38629 109.259 2.27429 109.617 2.27429C109.975 2.27429 110.326 2.38629 110.67 2.61029C111.012 2.83562 111.329 3.05696 111.622 3.27429C111.969 3.54096 112.386 3.77429 112.872 3.97429C113.358 4.17429 113.82 4.27429 114.26 4.27429C114.708 4.27429 115.183 4.17429 115.685 3.97429C116.187 3.77429 116.624 3.54096 116.997 3.27429C117.29 3.05696 117.607 2.83562 117.949 2.61029C118.292 2.38629 118.642 2.27429 119.002 2.27429H120V0.274292H119.002C118.553 0.274292 118.087 0.374291 117.602 0.574291C117.117 0.774291 116.701 1.00763 116.352 1.27429C116.061 1.49296 115.745 1.71429 115.406 1.93829C115.066 2.16229 114.717 2.27429 114.359 2.27429C114.001 2.27429 113.645 2.16229 113.289 1.93829C112.934 1.71429 112.61 1.49296 112.317 1.27429C111.969 1.00763 111.551 0.774291 111.061 0.574291C110.571 0.374291 110.106 0.274292 109.667 0.274292C109.22 0.274292 108.753 0.372291 108.268 0.568291C107.783 0.764291 107.366 0.999625 107.018 1.27429C106.751 1.49296 106.434 1.71429 106.065 1.93829C105.697 2.16229 105.333 2.27429 104.975 2.27429C104.617 2.27429 104.262 2.16229 103.909 1.93829C103.557 1.71429 103.249 1.49296 102.982 1.27429C102.635 0.999625 102.218 0.764291 101.732 0.568291C101.247 0.372291 100.78 0.274292 100.333 0.274292C99.8855 0.274292 99.419 0.372291 98.9331 0.568291C98.4473 0.764291 98.0306 0.999625 97.6832 1.27429C97.417 1.49163 97.0995 1.71296 96.7308 1.93829C96.3634 2.16229 96 2.27429 95.6406 2.27429C95.2892 2.27429 94.9358 2.16229 94.5804 1.93829C94.225 1.71429 93.9141 1.49296 93.6479 1.27429C93.2992 1.00763 92.8825 0.774291 92.398 0.574291C91.9135 0.374291 91.4469 0.274292 90.9983 0.274292H90H89.0017C88.5531 0.274292 88.0865 0.374291 87.602 0.574291C87.1175 0.774291 86.7008 1.00763 86.3521 1.27429C86.0606 1.49296 85.7451 1.71429 85.4057 1.93829C85.0662 2.16229 84.7175 2.27429 84.3594 2.27429C84.0013 2.27429 83.6446 2.16229 83.2892 1.93829C82.9338 1.71429 82.6096 1.49296 82.3168 1.27429C81.9694 1.00763 81.5508 0.774291 81.0609 0.574291C80.5711 0.374291 80.1065 0.274292 79.6672 0.274292C79.22 0.274292 78.7534 0.372291 78.2676 0.568291C77.783 0.764291 77.3664 0.999625 77.0176 1.27429C76.7514 1.49296 76.4339 1.71429 76.0652 1.93829C75.6965 2.16229 75.3331 2.27429 74.975 2.27429C74.617 2.27429 74.2616 2.16229 73.9088 1.93829C73.5574 1.71429 73.2486 1.49296 72.9824 1.27429C72.6349 0.999625 72.2183 0.764291 71.7324 0.568291C71.2466 0.372291 70.78 0.274292 70.3328 0.274292C69.8855 0.274292 69.419 0.372291 68.9331 0.568291C68.4473 0.764291 68.0306 0.999625 67.6832 1.27429C67.417 1.49163 67.0995 1.71296 66.7308 1.93829C66.3634 2.16229 66 2.27429 65.6406 2.27429C65.2892 2.27429 64.9358 2.16229 64.5804 1.93829C64.225 1.71429 63.9141 1.49296 63.6479 1.27429C63.2992 1.00763 62.8825 0.774291 62.398 0.574291C61.9135 0.374291 61.4469 0.274292 60.9983 0.274292H60H59.0017C58.5531 0.274292 58.0865 0.374291 57.602 0.574291C57.1175 0.774291 56.7008 1.00763 56.3521 1.27429C56.0606 1.49296 55.7451 1.71429 55.4057 1.93829C55.0662 2.16229 54.7175 2.27429 54.3594 2.27429C54.0013 2.27429 53.6446 2.16229 53.2892 1.93829C52.9338 1.71429 52.6096 1.49296 52.3168 1.27429C51.9694 1.00763 51.5508 0.774291 51.0609 0.574291C50.571 0.374291 50.1065 0.274292 49.6672 0.274292C49.22 0.274292 48.7534 0.372291 48.2676 0.568291C47.783 0.764291 47.3664 0.999625 47.0176 1.27429C46.7514 1.49296 46.4339 1.71429 46.0652 1.93829C45.6965 2.16229 45.3331 2.27429 44.975 2.27429C44.617 2.27429 44.2616 2.16229 43.9088 1.93829C43.5574 1.71429 43.2486 1.49296 42.9824 1.27429C42.6349 0.999625 42.2183 0.764291 41.7324 0.568291C41.2466 0.372291 40.78 0.274292 40.3328 0.274292C39.8855 0.274292 39.419 0.372291 38.9331 0.568291C38.4473 0.764291 38.0306 0.999625 37.6832 1.27429C37.417 1.49163 37.0995 1.71296 36.7308 1.93829C36.3634 2.16229 36 2.27429 35.6406 2.27429C35.2892 2.27429 34.9358 2.16229 34.5804 1.93829C34.225 1.71429 33.9141 1.49296 33.6479 1.27429C33.2992 1.00763 32.8825 0.774291 32.398 0.574291C31.9135 0.374291 31.4469 0.274292 30.9983 0.274292H30H29.0017C28.5531 0.274292 28.0865 0.374291 27.602 0.574291C27.1175 0.774291 26.7008 1.00763 26.3521 1.27429C26.0606 1.49296 25.7451 1.71429 25.4057 1.93829C25.0662 2.16229 24.7175 2.27429 24.3594 2.27429C24.0013 2.27429 23.6446 2.16229 23.2892 1.93829C22.9338 1.71429 22.6097 1.49296 22.3168 1.27429C21.9694 1.00763 21.5508 0.774291 21.0609 0.574291C20.571 0.374291 20.1065 0.274292 19.6672 0.274292C19.22 0.274292 18.7534 0.372291 18.2676 0.568291C17.783 0.764291 17.3664 0.999625 17.0176 1.27429C16.7514 1.49296 16.4339 1.71429 16.0652 1.93829C15.6965 2.16229 15.3331 2.27429 14.975 2.27429C14.617 2.27429 14.2616 2.16229 13.9088 1.93829C13.5574 1.71429 13.2486 1.49296 12.9824 1.27429C12.6349 0.999625 12.2183 0.764291 11.7324 0.568291C11.2466 0.372291 10.78 0.274292 10.3328 0.274292C9.88552 0.274292 9.41897 0.372291 8.93311 0.568291C8.44726 0.764291 8.03061 0.999625 7.68319 1.27429C7.41697 1.49163 7.0995 1.71296 6.73078 1.93829C6.36339 2.16229 6 2.27429 5.6406 2.27429C5.28918 2.27429 4.93577 2.16229 4.58037 1.93829C4.22496 1.71429 3.91414 1.49296 3.64792 1.27429C3.29917 1.00763 2.88253 0.774291 2.398 0.574291C1.91348 0.374291 1.44692 0.274292 0.998336 0.274292H0V2.27429H0.998336C1.34975 2.27296 1.70316 2.38496 2.05857 2.61029C2.41398 2.83562 2.72479 3.05696 2.99102 3.27429C3.33844 3.54096 3.75508 3.77429 4.24093 3.97429Z" fill="#FFB700"/>
</svg>
