<svg width="30" height="30" viewBox="0 0 30 30" fill="none" xmlns="http://www.w3.org/2000/svg">
<path d="M16.211 24.1008C16.1238 24.0137 16.0547 23.9103 16.0075 23.7965C15.9603 23.6827 15.936 23.5607 15.936 23.4375C15.936 23.3143 15.9603 23.1923 16.0075 23.0785C16.0547 22.9647 16.1238 22.8613 16.211 22.7743L23.0489 15.9375L4.68677 15.9375C4.43813 15.9375 4.19967 15.8388 4.02385 15.6629C3.84804 15.4871 3.74927 15.2487 3.74927 15C3.74927 14.7514 3.84804 14.5129 4.02385 14.3371C4.19967 14.1613 4.43813 14.0625 4.68677 14.0625L23.0489 14.0625L16.211 7.22581C16.0351 7.0499 15.9362 6.81131 15.9362 6.56253C15.9362 6.31375 16.0351 6.07516 16.211 5.89925C16.3869 5.72334 16.6255 5.62451 16.8743 5.62451C17.123 5.62451 17.3616 5.72334 17.5375 5.89925L25.975 14.3368C26.0622 14.4238 26.1314 14.5272 26.1785 14.641C26.2257 14.7548 26.25 14.8768 26.25 15C26.25 15.1232 26.2257 15.2452 26.1785 15.359C26.1314 15.4728 26.0622 15.5762 25.975 15.6633L17.5375 24.1008C17.4505 24.188 17.3471 24.2571 17.2333 24.3043C17.1195 24.3515 16.9975 24.3758 16.8743 24.3758C16.7511 24.3758 16.6291 24.3515 16.5153 24.3043C16.4014 24.2571 16.2981 24.188 16.211 24.1008Z" fill="#10A9FF"/>
</svg>
