<svg width="19" height="20" viewBox="0 0 19 20" fill="none" xmlns="http://www.w3.org/2000/svg">
<path d="M9.5 0C9.29004 0 9.08867 0.0726599 8.94021 0.201995C8.79174 0.331331 8.70833 0.506747 8.70833 0.689655V3.44828C8.70833 3.63118 8.79174 3.8066 8.94021 3.93594C9.08867 4.06527 9.29004 4.13793 9.5 4.13793C9.70996 4.13793 9.91133 4.06527 10.0598 3.93594C10.2083 3.8066 10.2917 3.63118 10.2917 3.44828V0.689655C10.2917 0.506747 10.2083 0.331331 10.0598 0.201995C9.91133 0.0726599 9.70996 0 9.5 0ZM17.1768 2.27793C17.023 2.14397 16.8144 2.06871 16.5969 2.06871C16.3794 2.06871 16.1708 2.14397 16.017 2.27793L14.8576 3.28828L13.6982 4.29862C13.6184 4.36423 13.5545 4.44312 13.5104 4.53062C13.4662 4.61812 13.4427 4.71244 13.4411 4.80802C13.4395 4.90359 13.46 4.99847 13.5013 5.08703C13.5426 5.17559 13.6038 5.25603 13.6814 5.3236C13.759 5.39116 13.8514 5.44448 13.9531 5.48038C14.0548 5.51628 14.1637 5.53404 14.2734 5.53261C14.3831 5.53118 14.4914 5.51059 14.5918 5.47206C14.6922 5.43353 14.7827 5.37783 14.858 5.30828L17.1768 3.28759C17.3303 3.15363 17.4166 2.97206 17.4166 2.78276C17.4166 2.59346 17.3303 2.41189 17.1768 2.27793ZM2.983 2.27793C2.82852 2.14683 2.62098 2.07401 2.40532 2.07524C2.18967 2.07647 1.98324 2.15165 1.83074 2.28449C1.67824 2.41734 1.59195 2.59717 1.59054 2.78504C1.58913 2.97291 1.67272 3.1537 1.82321 3.28828L4.14279 5.30828C4.29806 5.43577 4.50426 5.50553 4.71761 5.50275C4.93095 5.49998 5.13466 5.42488 5.28549 5.29339C5.43632 5.16191 5.52239 4.9844 5.52543 4.79854C5.52847 4.61268 5.44825 4.43311 5.30179 4.29793L2.983 2.27793ZM3.14054 14.4828L4.64233 8.87586C4.89829 7.92079 5.51758 7.06923 6.39952 6.45964C7.28146 5.85005 8.37418 5.51829 9.5 5.51829C10.6258 5.51829 11.7185 5.85005 12.6005 6.45964C13.4824 7.06923 14.1017 7.92079 14.3577 8.87586L15.8595 14.4828H16.5181C17.7975 14.4828 19 15.3586 19 16.6V17.8828C19 19.1172 17.8141 20 16.5181 20H2.48188C1.20333 20 0 19.1241 0 17.8828V16.6C0 15.3586 1.20333 14.4828 2.48188 14.4828H3.14054ZM12.897 7.70207C12.4379 7.00897 11.5528 6.70552 10.921 7.02345C10.2893 7.34069 10.1492 8.16 10.6083 8.8531C11.0675 9.54552 11.9518 9.84966 12.5835 9.53172C13.2161 9.21379 13.3562 8.39448 12.897 7.70207ZM16.5181 18.6207C17.0192 18.6207 17.4167 18.2876 17.4167 17.8828V16.6C17.4167 16.1952 17.0113 15.8621 16.5181 15.8621H2.48188C1.98867 15.8621 1.58333 16.1952 1.58333 16.6V17.8828C1.58333 18.2876 1.98867 18.6207 2.48188 18.6207H16.5181Z" fill="#3A4980"/>
</svg>
